<?xml version="1.0" encoding="utf-8" standalone="no"?>
<!DOCTYPE svg PUBLIC "-//W3C//DTD SVG 1.1//EN"
  "http://www.w3.org/Graphics/SVG/1.1/DTD/svg11.dtd">
<svg xmlns:xlink="http://www.w3.org/1999/xlink" width="703.640313pt" height="456.727687pt" viewBox="0 0 703.640313 456.727687" xmlns="http://www.w3.org/2000/svg" version="1.1">
 <metadata>
  <rdf:RDF xmlns:dc="http://purl.org/dc/elements/1.1/" xmlns:cc="http://creativecommons.org/ns#" xmlns:rdf="http://www.w3.org/1999/02/22-rdf-syntax-ns#">
   <cc:Work>
    <dc:type rdf:resource="http://purl.org/dc/dcmitype/StillImage"/>
    <dc:date>2026-04-25T13:02:13.370777</dc:date>
    <dc:format>image/svg+xml</dc:format>
    <dc:creator>
     <cc:Agent>
      <dc:title>Matplotlib v3.9.0, https://matplotlib.org/</dc:title>
     </cc:Agent>
    </dc:creator>
   </cc:Work>
  </rdf:RDF>
 </metadata>
 <defs>
  <style type="text/css">*{stroke-linejoin: round; stroke-linecap: butt}</style>
 </defs>
 <g id="figure_1">
  <g id="patch_1">
   <path d="M 0 456.727687 
L 703.640313 456.727687 
L 703.640313 0 
L 0 0 
z
" style="fill: #ffffff"/>
  </g>
  <g id="axes_1">
   <g id="patch_2">
    <path d="M 116.120313 422.559562 
L 696.440313 422.559562 
L 696.440313 23.391562 
L 116.120313 23.391562 
z
" style="fill: #ffffff"/>
   </g>
   <g id="matplotlib.axis_1">
    <g id="xtick_1">
     <g id="line2d_1">
      <path d="M 116.120313 422.559562 
L 116.120313 23.391562 
" clip-path="url(#p04d7625514)" style="fill: none; stroke: #cccccc; stroke-width: 0.8; stroke-linecap: round"/>
     </g>
     <g id="line2d_2"/>
     <g id="text_1">
      <!-- 0 -->
      <g style="fill: #262626" transform="translate(113.339844 433.217375) scale(0.1 -0.1)">
       <defs>
        <path id="ArialMT-30" d="M 266 2259 
Q 266 3072 433 3567 
Q 600 4063 929 4331 
Q 1259 4600 1759 4600 
Q 2128 4600 2406 4451 
Q 2684 4303 2865 4023 
Q 3047 3744 3150 3342 
Q 3253 2941 3253 2259 
Q 3253 1453 3087 958 
Q 2922 463 2592 192 
Q 2263 -78 1759 -78 
Q 1097 -78 719 397 
Q 266 969 266 2259 
z
M 844 2259 
Q 844 1131 1108 757 
Q 1372 384 1759 384 
Q 2147 384 2411 759 
Q 2675 1134 2675 2259 
Q 2675 3391 2411 3762 
Q 2147 4134 1753 4134 
Q 1366 4134 1134 3806 
Q 844 3388 844 2259 
z
" transform="scale(0.015625)"/>
       </defs>
       <use xlink:href="#ArialMT-30"/>
      </g>
     </g>
    </g>
    <g id="xtick_2">
     <g id="line2d_3">
      <path d="M 223.586979 422.559562 
L 223.586979 23.391562 
" clip-path="url(#p04d7625514)" style="fill: none; stroke: #cccccc; stroke-width: 0.8; stroke-linecap: round"/>
     </g>
     <g id="line2d_4"/>
     <g id="text_2">
      <!-- 20 -->
      <g style="fill: #262626" transform="translate(218.026042 433.217375) scale(0.1 -0.1)">
       <defs>
        <path id="ArialMT-32" d="M 3222 541 
L 3222 0 
L 194 0 
Q 188 203 259 391 
Q 375 700 629 1000 
Q 884 1300 1366 1694 
Q 2113 2306 2375 2664 
Q 2638 3022 2638 3341 
Q 2638 3675 2398 3904 
Q 2159 4134 1775 4134 
Q 1369 4134 1125 3890 
Q 881 3647 878 3216 
L 300 3275 
Q 359 3922 746 4261 
Q 1134 4600 1788 4600 
Q 2447 4600 2831 4234 
Q 3216 3869 3216 3328 
Q 3216 3053 3103 2787 
Q 2991 2522 2730 2228 
Q 2469 1934 1863 1422 
Q 1356 997 1212 845 
Q 1069 694 975 541 
L 3222 541 
z
" transform="scale(0.015625)"/>
       </defs>
       <use xlink:href="#ArialMT-32"/>
       <use xlink:href="#ArialMT-30" x="55.615234"/>
      </g>
     </g>
    </g>
    <g id="xtick_3">
     <g id="line2d_5">
      <path d="M 331.053646 422.559562 
L 331.053646 23.391562 
" clip-path="url(#p04d7625514)" style="fill: none; stroke: #cccccc; stroke-width: 0.8; stroke-linecap: round"/>
     </g>
     <g id="line2d_6"/>
     <g id="text_3">
      <!-- 40 -->
      <g style="fill: #262626" transform="translate(325.492708 433.217375) scale(0.1 -0.1)">
       <defs>
        <path id="ArialMT-34" d="M 2069 0 
L 2069 1097 
L 81 1097 
L 81 1613 
L 2172 4581 
L 2631 4581 
L 2631 1613 
L 3250 1613 
L 3250 1097 
L 2631 1097 
L 2631 0 
L 2069 0 
z
M 2069 1613 
L 2069 3678 
L 634 1613 
L 2069 1613 
z
" transform="scale(0.015625)"/>
       </defs>
       <use xlink:href="#ArialMT-34"/>
       <use xlink:href="#ArialMT-30" x="55.615234"/>
      </g>
     </g>
    </g>
    <g id="xtick_4">
     <g id="line2d_7">
      <path d="M 438.520313 422.559562 
L 438.520313 23.391562 
" clip-path="url(#p04d7625514)" style="fill: none; stroke: #cccccc; stroke-width: 0.8; stroke-linecap: round"/>
     </g>
     <g id="line2d_8"/>
     <g id="text_4">
      <!-- 60 -->
      <g style="fill: #262626" transform="translate(432.959375 433.217375) scale(0.1 -0.1)">
       <defs>
        <path id="ArialMT-36" d="M 3184 3459 
L 2625 3416 
Q 2550 3747 2413 3897 
Q 2184 4138 1850 4138 
Q 1581 4138 1378 3988 
Q 1113 3794 959 3422 
Q 806 3050 800 2363 
Q 1003 2672 1297 2822 
Q 1591 2972 1913 2972 
Q 2475 2972 2870 2558 
Q 3266 2144 3266 1488 
Q 3266 1056 3080 686 
Q 2894 316 2569 119 
Q 2244 -78 1831 -78 
Q 1128 -78 684 439 
Q 241 956 241 2144 
Q 241 3472 731 4075 
Q 1159 4600 1884 4600 
Q 2425 4600 2770 4297 
Q 3116 3994 3184 3459 
z
M 888 1484 
Q 888 1194 1011 928 
Q 1134 663 1356 523 
Q 1578 384 1822 384 
Q 2178 384 2434 671 
Q 2691 959 2691 1453 
Q 2691 1928 2437 2201 
Q 2184 2475 1800 2475 
Q 1419 2475 1153 2201 
Q 888 1928 888 1484 
z
" transform="scale(0.015625)"/>
       </defs>
       <use xlink:href="#ArialMT-36"/>
       <use xlink:href="#ArialMT-30" x="55.615234"/>
      </g>
     </g>
    </g>
    <g id="xtick_5">
     <g id="line2d_9">
      <path d="M 545.986979 422.559562 
L 545.986979 23.391562 
" clip-path="url(#p04d7625514)" style="fill: none; stroke: #cccccc; stroke-width: 0.8; stroke-linecap: round"/>
     </g>
     <g id="line2d_10"/>
     <g id="text_5">
      <!-- 80 -->
      <g style="fill: #262626" transform="translate(540.426042 433.217375) scale(0.1 -0.1)">
       <defs>
        <path id="ArialMT-38" d="M 1131 2484 
Q 781 2613 612 2850 
Q 444 3088 444 3419 
Q 444 3919 803 4259 
Q 1163 4600 1759 4600 
Q 2359 4600 2725 4251 
Q 3091 3903 3091 3403 
Q 3091 3084 2923 2848 
Q 2756 2613 2416 2484 
Q 2838 2347 3058 2040 
Q 3278 1734 3278 1309 
Q 3278 722 2862 322 
Q 2447 -78 1769 -78 
Q 1091 -78 675 323 
Q 259 725 259 1325 
Q 259 1772 486 2073 
Q 713 2375 1131 2484 
z
M 1019 3438 
Q 1019 3113 1228 2906 
Q 1438 2700 1772 2700 
Q 2097 2700 2305 2904 
Q 2513 3109 2513 3406 
Q 2513 3716 2298 3927 
Q 2084 4138 1766 4138 
Q 1444 4138 1231 3931 
Q 1019 3725 1019 3438 
z
M 838 1322 
Q 838 1081 952 856 
Q 1066 631 1291 507 
Q 1516 384 1775 384 
Q 2178 384 2440 643 
Q 2703 903 2703 1303 
Q 2703 1709 2433 1975 
Q 2163 2241 1756 2241 
Q 1359 2241 1098 1978 
Q 838 1716 838 1322 
z
" transform="scale(0.015625)"/>
       </defs>
       <use xlink:href="#ArialMT-38"/>
       <use xlink:href="#ArialMT-30" x="55.615234"/>
      </g>
     </g>
    </g>
    <g id="xtick_6">
     <g id="line2d_11">
      <path d="M 653.453646 422.559562 
L 653.453646 23.391562 
" clip-path="url(#p04d7625514)" style="fill: none; stroke: #cccccc; stroke-width: 0.8; stroke-linecap: round"/>
     </g>
     <g id="line2d_12"/>
     <g id="text_6">
      <!-- 100 -->
      <g style="fill: #262626" transform="translate(645.11224 433.217375) scale(0.1 -0.1)">
       <defs>
        <path id="ArialMT-31" d="M 2384 0 
L 1822 0 
L 1822 3584 
Q 1619 3391 1289 3197 
Q 959 3003 697 2906 
L 697 3450 
Q 1169 3672 1522 3987 
Q 1875 4303 2022 4600 
L 2384 4600 
L 2384 0 
z
" transform="scale(0.015625)"/>
       </defs>
       <use xlink:href="#ArialMT-31"/>
       <use xlink:href="#ArialMT-30" x="55.615234"/>
       <use xlink:href="#ArialMT-30" x="111.230469"/>
      </g>
     </g>
    </g>
    <g id="text_7">
     <!-- Validity % -->
     <g style="fill: #262626" transform="translate(382.5375 447.212531) scale(0.11 -0.11)">
      <defs>
       <path id="ArialMT-56" d="M 1803 0 
L 28 4581 
L 684 4581 
L 1875 1253 
Q 2019 853 2116 503 
Q 2222 878 2363 1253 
L 3600 4581 
L 4219 4581 
L 2425 0 
L 1803 0 
z
" transform="scale(0.015625)"/>
       <path id="ArialMT-61" d="M 2588 409 
Q 2275 144 1986 34 
Q 1697 -75 1366 -75 
Q 819 -75 525 192 
Q 231 459 231 875 
Q 231 1119 342 1320 
Q 453 1522 633 1644 
Q 813 1766 1038 1828 
Q 1203 1872 1538 1913 
Q 2219 1994 2541 2106 
Q 2544 2222 2544 2253 
Q 2544 2597 2384 2738 
Q 2169 2928 1744 2928 
Q 1347 2928 1158 2789 
Q 969 2650 878 2297 
L 328 2372 
Q 403 2725 575 2942 
Q 747 3159 1072 3276 
Q 1397 3394 1825 3394 
Q 2250 3394 2515 3294 
Q 2781 3194 2906 3042 
Q 3031 2891 3081 2659 
Q 3109 2516 3109 2141 
L 3109 1391 
Q 3109 606 3145 398 
Q 3181 191 3288 0 
L 2700 0 
Q 2613 175 2588 409 
z
M 2541 1666 
Q 2234 1541 1622 1453 
Q 1275 1403 1131 1340 
Q 988 1278 909 1158 
Q 831 1038 831 891 
Q 831 666 1001 516 
Q 1172 366 1500 366 
Q 1825 366 2078 508 
Q 2331 650 2450 897 
Q 2541 1088 2541 1459 
L 2541 1666 
z
" transform="scale(0.015625)"/>
       <path id="ArialMT-6c" d="M 409 0 
L 409 4581 
L 972 4581 
L 972 0 
L 409 0 
z
" transform="scale(0.015625)"/>
       <path id="ArialMT-69" d="M 425 3934 
L 425 4581 
L 988 4581 
L 988 3934 
L 425 3934 
z
M 425 0 
L 425 3319 
L 988 3319 
L 988 0 
L 425 0 
z
" transform="scale(0.015625)"/>
       <path id="ArialMT-64" d="M 2575 0 
L 2575 419 
Q 2259 -75 1647 -75 
Q 1250 -75 917 144 
Q 584 363 401 755 
Q 219 1147 219 1656 
Q 219 2153 384 2558 
Q 550 2963 881 3178 
Q 1213 3394 1622 3394 
Q 1922 3394 2156 3267 
Q 2391 3141 2538 2938 
L 2538 4581 
L 3097 4581 
L 3097 0 
L 2575 0 
z
M 797 1656 
Q 797 1019 1065 703 
Q 1334 388 1700 388 
Q 2069 388 2326 689 
Q 2584 991 2584 1609 
Q 2584 2291 2321 2609 
Q 2059 2928 1675 2928 
Q 1300 2928 1048 2622 
Q 797 2316 797 1656 
z
" transform="scale(0.015625)"/>
       <path id="ArialMT-74" d="M 1650 503 
L 1731 6 
Q 1494 -44 1306 -44 
Q 1000 -44 831 53 
Q 663 150 594 308 
Q 525 466 525 972 
L 525 2881 
L 113 2881 
L 113 3319 
L 525 3319 
L 525 4141 
L 1084 4478 
L 1084 3319 
L 1650 3319 
L 1650 2881 
L 1084 2881 
L 1084 941 
Q 1084 700 1114 631 
Q 1144 563 1211 522 
Q 1278 481 1403 481 
Q 1497 481 1650 503 
z
" transform="scale(0.015625)"/>
       <path id="ArialMT-79" d="M 397 -1278 
L 334 -750 
Q 519 -800 656 -800 
Q 844 -800 956 -737 
Q 1069 -675 1141 -563 
Q 1194 -478 1313 -144 
Q 1328 -97 1363 -6 
L 103 3319 
L 709 3319 
L 1400 1397 
Q 1534 1031 1641 628 
Q 1738 1016 1872 1384 
L 2581 3319 
L 3144 3319 
L 1881 -56 
Q 1678 -603 1566 -809 
Q 1416 -1088 1222 -1217 
Q 1028 -1347 759 -1347 
Q 597 -1347 397 -1278 
z
" transform="scale(0.015625)"/>
       <path id="ArialMT-20" transform="scale(0.015625)"/>
       <path id="ArialMT-25" d="M 372 3481 
Q 372 3972 619 4315 
Q 866 4659 1334 4659 
Q 1766 4659 2048 4351 
Q 2331 4044 2331 3447 
Q 2331 2866 2045 2552 
Q 1759 2238 1341 2238 
Q 925 2238 648 2547 
Q 372 2856 372 3481 
z
M 1350 4272 
Q 1141 4272 1002 4090 
Q 863 3909 863 3425 
Q 863 2984 1003 2804 
Q 1144 2625 1350 2625 
Q 1563 2625 1702 2806 
Q 1841 2988 1841 3469 
Q 1841 3913 1700 4092 
Q 1559 4272 1350 4272 
z
M 1353 -169 
L 3859 4659 
L 4316 4659 
L 1819 -169 
L 1353 -169 
z
M 3334 1075 
Q 3334 1569 3581 1911 
Q 3828 2253 4300 2253 
Q 4731 2253 5014 1945 
Q 5297 1638 5297 1041 
Q 5297 459 5011 145 
Q 4725 -169 4303 -169 
Q 3888 -169 3611 142 
Q 3334 453 3334 1075 
z
M 4316 1866 
Q 4103 1866 3964 1684 
Q 3825 1503 3825 1019 
Q 3825 581 3965 400 
Q 4106 219 4313 219 
Q 4528 219 4667 400 
Q 4806 581 4806 1063 
Q 4806 1506 4665 1686 
Q 4525 1866 4316 1866 
z
" transform="scale(0.015625)"/>
      </defs>
      <use xlink:href="#ArialMT-56"/>
      <use xlink:href="#ArialMT-61" x="59.324219"/>
      <use xlink:href="#ArialMT-6c" x="114.939453"/>
      <use xlink:href="#ArialMT-69" x="137.15625"/>
      <use xlink:href="#ArialMT-64" x="159.373047"/>
      <use xlink:href="#ArialMT-69" x="214.988281"/>
      <use xlink:href="#ArialMT-74" x="237.205078"/>
      <use xlink:href="#ArialMT-79" x="264.988281"/>
      <use xlink:href="#ArialMT-20" x="314.988281"/>
      <use xlink:href="#ArialMT-25" x="342.771484"/>
     </g>
    </g>
   </g>
   <g id="matplotlib.axis_2">
    <g id="ytick_1">
     <g id="line2d_13">
      <path d="M 116.120313 41.535562 
L 696.440313 41.535562 
" clip-path="url(#p04d7625514)" style="fill: none; stroke: #cccccc; stroke-width: 0.8; stroke-linecap: round"/>
     </g>
     <g id="line2d_14"/>
     <g id="text_8">
      <!-- Refinement -->
      <g style="fill: #262626" transform="translate(61.485938 45.114469) scale(0.1 -0.1)">
       <defs>
        <path id="ArialMT-52" d="M 503 0 
L 503 4581 
L 2534 4581 
Q 3147 4581 3465 4457 
Q 3784 4334 3975 4021 
Q 4166 3709 4166 3331 
Q 4166 2844 3850 2509 
Q 3534 2175 2875 2084 
Q 3116 1969 3241 1856 
Q 3506 1613 3744 1247 
L 4541 0 
L 3778 0 
L 3172 953 
Q 2906 1366 2734 1584 
Q 2563 1803 2427 1890 
Q 2291 1978 2150 2013 
Q 2047 2034 1813 2034 
L 1109 2034 
L 1109 0 
L 503 0 
z
M 1109 2559 
L 2413 2559 
Q 2828 2559 3062 2645 
Q 3297 2731 3419 2920 
Q 3541 3109 3541 3331 
Q 3541 3656 3305 3865 
Q 3069 4075 2559 4075 
L 1109 4075 
L 1109 2559 
z
" transform="scale(0.015625)"/>
        <path id="ArialMT-65" d="M 2694 1069 
L 3275 997 
Q 3138 488 2766 206 
Q 2394 -75 1816 -75 
Q 1088 -75 661 373 
Q 234 822 234 1631 
Q 234 2469 665 2931 
Q 1097 3394 1784 3394 
Q 2450 3394 2872 2941 
Q 3294 2488 3294 1666 
Q 3294 1616 3291 1516 
L 816 1516 
Q 847 969 1125 678 
Q 1403 388 1819 388 
Q 2128 388 2347 550 
Q 2566 713 2694 1069 
z
M 847 1978 
L 2700 1978 
Q 2663 2397 2488 2606 
Q 2219 2931 1791 2931 
Q 1403 2931 1139 2672 
Q 875 2413 847 1978 
z
" transform="scale(0.015625)"/>
        <path id="ArialMT-66" d="M 556 0 
L 556 2881 
L 59 2881 
L 59 3319 
L 556 3319 
L 556 3672 
Q 556 4006 616 4169 
Q 697 4388 901 4523 
Q 1106 4659 1475 4659 
Q 1713 4659 2000 4603 
L 1916 4113 
Q 1741 4144 1584 4144 
Q 1328 4144 1222 4034 
Q 1116 3925 1116 3625 
L 1116 3319 
L 1763 3319 
L 1763 2881 
L 1116 2881 
L 1116 0 
L 556 0 
z
" transform="scale(0.015625)"/>
        <path id="ArialMT-6e" d="M 422 0 
L 422 3319 
L 928 3319 
L 928 2847 
Q 1294 3394 1984 3394 
Q 2284 3394 2536 3286 
Q 2788 3178 2913 3003 
Q 3038 2828 3088 2588 
Q 3119 2431 3119 2041 
L 3119 0 
L 2556 0 
L 2556 2019 
Q 2556 2363 2490 2533 
Q 2425 2703 2258 2804 
Q 2091 2906 1866 2906 
Q 1506 2906 1245 2678 
Q 984 2450 984 1813 
L 984 0 
L 422 0 
z
" transform="scale(0.015625)"/>
        <path id="ArialMT-6d" d="M 422 0 
L 422 3319 
L 925 3319 
L 925 2853 
Q 1081 3097 1340 3245 
Q 1600 3394 1931 3394 
Q 2300 3394 2536 3241 
Q 2772 3088 2869 2813 
Q 3263 3394 3894 3394 
Q 4388 3394 4653 3120 
Q 4919 2847 4919 2278 
L 4919 0 
L 4359 0 
L 4359 2091 
Q 4359 2428 4304 2576 
Q 4250 2725 4106 2815 
Q 3963 2906 3769 2906 
Q 3419 2906 3187 2673 
Q 2956 2441 2956 1928 
L 2956 0 
L 2394 0 
L 2394 2156 
Q 2394 2531 2256 2718 
Q 2119 2906 1806 2906 
Q 1569 2906 1367 2781 
Q 1166 2656 1075 2415 
Q 984 2175 984 1722 
L 984 0 
L 422 0 
z
" transform="scale(0.015625)"/>
       </defs>
       <use xlink:href="#ArialMT-52"/>
       <use xlink:href="#ArialMT-65" x="72.216797"/>
       <use xlink:href="#ArialMT-66" x="127.832031"/>
       <use xlink:href="#ArialMT-69" x="155.615234"/>
       <use xlink:href="#ArialMT-6e" x="177.832031"/>
       <use xlink:href="#ArialMT-65" x="233.447266"/>
       <use xlink:href="#ArialMT-6d" x="289.0625"/>
       <use xlink:href="#ArialMT-65" x="372.363281"/>
       <use xlink:href="#ArialMT-6e" x="427.978516"/>
       <use xlink:href="#ArialMT-74" x="483.59375"/>
      </g>
     </g>
    </g>
    <g id="ytick_2">
     <g id="line2d_15">
      <path d="M 116.120313 62.881445 
L 696.440313 62.881445 
" clip-path="url(#p04d7625514)" style="fill: none; stroke: #cccccc; stroke-width: 0.8; stroke-linecap: round"/>
     </g>
     <g id="line2d_16"/>
     <g id="text_9">
      <!-- G:Add Nsw Nuw -->
      <g style="fill: #262626" transform="translate(39.267188 66.460351) scale(0.1 -0.1)">
       <defs>
        <path id="ArialMT-47" d="M 2638 1797 
L 2638 2334 
L 4578 2338 
L 4578 638 
Q 4131 281 3656 101 
Q 3181 -78 2681 -78 
Q 2006 -78 1454 211 
Q 903 500 622 1047 
Q 341 1594 341 2269 
Q 341 2938 620 3517 
Q 900 4097 1425 4378 
Q 1950 4659 2634 4659 
Q 3131 4659 3532 4498 
Q 3934 4338 4162 4050 
Q 4391 3763 4509 3300 
L 3963 3150 
Q 3859 3500 3706 3700 
Q 3553 3900 3268 4020 
Q 2984 4141 2638 4141 
Q 2222 4141 1919 4014 
Q 1616 3888 1430 3681 
Q 1244 3475 1141 3228 
Q 966 2803 966 2306 
Q 966 1694 1177 1281 
Q 1388 869 1791 669 
Q 2194 469 2647 469 
Q 3041 469 3416 620 
Q 3791 772 3984 944 
L 3984 1797 
L 2638 1797 
z
" transform="scale(0.015625)"/>
        <path id="ArialMT-3a" d="M 578 2678 
L 578 3319 
L 1219 3319 
L 1219 2678 
L 578 2678 
z
M 578 0 
L 578 641 
L 1219 641 
L 1219 0 
L 578 0 
z
" transform="scale(0.015625)"/>
        <path id="ArialMT-41" d="M -9 0 
L 1750 4581 
L 2403 4581 
L 4278 0 
L 3588 0 
L 3053 1388 
L 1138 1388 
L 634 0 
L -9 0 
z
M 1313 1881 
L 2866 1881 
L 2388 3150 
Q 2169 3728 2063 4100 
Q 1975 3659 1816 3225 
L 1313 1881 
z
" transform="scale(0.015625)"/>
        <path id="ArialMT-4e" d="M 488 0 
L 488 4581 
L 1109 4581 
L 3516 984 
L 3516 4581 
L 4097 4581 
L 4097 0 
L 3475 0 
L 1069 3600 
L 1069 0 
L 488 0 
z
" transform="scale(0.015625)"/>
        <path id="ArialMT-73" d="M 197 991 
L 753 1078 
Q 800 744 1014 566 
Q 1228 388 1613 388 
Q 2000 388 2187 545 
Q 2375 703 2375 916 
Q 2375 1106 2209 1216 
Q 2094 1291 1634 1406 
Q 1016 1563 777 1677 
Q 538 1791 414 1992 
Q 291 2194 291 2438 
Q 291 2659 392 2848 
Q 494 3038 669 3163 
Q 800 3259 1026 3326 
Q 1253 3394 1513 3394 
Q 1903 3394 2198 3281 
Q 2494 3169 2634 2976 
Q 2775 2784 2828 2463 
L 2278 2388 
Q 2241 2644 2061 2787 
Q 1881 2931 1553 2931 
Q 1166 2931 1000 2803 
Q 834 2675 834 2503 
Q 834 2394 903 2306 
Q 972 2216 1119 2156 
Q 1203 2125 1616 2013 
Q 2213 1853 2448 1751 
Q 2684 1650 2818 1456 
Q 2953 1263 2953 975 
Q 2953 694 2789 445 
Q 2625 197 2315 61 
Q 2006 -75 1616 -75 
Q 969 -75 630 194 
Q 291 463 197 991 
z
" transform="scale(0.015625)"/>
        <path id="ArialMT-77" d="M 1034 0 
L 19 3319 
L 600 3319 
L 1128 1403 
L 1325 691 
Q 1338 744 1497 1375 
L 2025 3319 
L 2603 3319 
L 3100 1394 
L 3266 759 
L 3456 1400 
L 4025 3319 
L 4572 3319 
L 3534 0 
L 2950 0 
L 2422 1988 
L 2294 2553 
L 1622 0 
L 1034 0 
z
" transform="scale(0.015625)"/>
        <path id="ArialMT-75" d="M 2597 0 
L 2597 488 
Q 2209 -75 1544 -75 
Q 1250 -75 995 37 
Q 741 150 617 320 
Q 494 491 444 738 
Q 409 903 409 1263 
L 409 3319 
L 972 3319 
L 972 1478 
Q 972 1038 1006 884 
Q 1059 663 1231 536 
Q 1403 409 1656 409 
Q 1909 409 2131 539 
Q 2353 669 2445 892 
Q 2538 1116 2538 1541 
L 2538 3319 
L 3100 3319 
L 3100 0 
L 2597 0 
z
" transform="scale(0.015625)"/>
       </defs>
       <use xlink:href="#ArialMT-47"/>
       <use xlink:href="#ArialMT-3a" x="77.783203"/>
       <use xlink:href="#ArialMT-41" x="105.566406"/>
       <use xlink:href="#ArialMT-64" x="172.265625"/>
       <use xlink:href="#ArialMT-64" x="227.880859"/>
       <use xlink:href="#ArialMT-20" x="283.496094"/>
       <use xlink:href="#ArialMT-4e" x="311.279297"/>
       <use xlink:href="#ArialMT-73" x="383.496094"/>
       <use xlink:href="#ArialMT-77" x="433.496094"/>
       <use xlink:href="#ArialMT-20" x="505.712891"/>
       <use xlink:href="#ArialMT-4e" x="533.496094"/>
       <use xlink:href="#ArialMT-75" x="605.712891"/>
       <use xlink:href="#ArialMT-77" x="661.328125"/>
      </g>
     </g>
    </g>
    <g id="ytick_3">
     <g id="line2d_17">
      <path d="M 116.120313 84.227327 
L 696.440313 84.227327 
" clip-path="url(#p04d7625514)" style="fill: none; stroke: #cccccc; stroke-width: 0.8; stroke-linecap: round"/>
     </g>
     <g id="line2d_18"/>
     <g id="text_10">
      <!-- G:Swap Branch Targets -->
      <g style="fill: #262626" transform="translate(7.2 87.867171) scale(0.1 -0.1)">
       <defs>
        <path id="ArialMT-53" d="M 288 1472 
L 859 1522 
Q 900 1178 1048 958 
Q 1197 738 1509 602 
Q 1822 466 2213 466 
Q 2559 466 2825 569 
Q 3091 672 3220 851 
Q 3350 1031 3350 1244 
Q 3350 1459 3225 1620 
Q 3100 1781 2813 1891 
Q 2628 1963 1997 2114 
Q 1366 2266 1113 2400 
Q 784 2572 623 2826 
Q 463 3081 463 3397 
Q 463 3744 659 4045 
Q 856 4347 1234 4503 
Q 1613 4659 2075 4659 
Q 2584 4659 2973 4495 
Q 3363 4331 3572 4012 
Q 3781 3694 3797 3291 
L 3216 3247 
Q 3169 3681 2898 3903 
Q 2628 4125 2100 4125 
Q 1550 4125 1298 3923 
Q 1047 3722 1047 3438 
Q 1047 3191 1225 3031 
Q 1400 2872 2139 2705 
Q 2878 2538 3153 2413 
Q 3553 2228 3743 1945 
Q 3934 1663 3934 1294 
Q 3934 928 3725 604 
Q 3516 281 3123 101 
Q 2731 -78 2241 -78 
Q 1619 -78 1198 103 
Q 778 284 539 648 
Q 300 1013 288 1472 
z
" transform="scale(0.015625)"/>
        <path id="ArialMT-70" d="M 422 -1272 
L 422 3319 
L 934 3319 
L 934 2888 
Q 1116 3141 1344 3267 
Q 1572 3394 1897 3394 
Q 2322 3394 2647 3175 
Q 2972 2956 3137 2557 
Q 3303 2159 3303 1684 
Q 3303 1175 3120 767 
Q 2938 359 2589 142 
Q 2241 -75 1856 -75 
Q 1575 -75 1351 44 
Q 1128 163 984 344 
L 984 -1272 
L 422 -1272 
z
M 931 1641 
Q 931 1000 1190 694 
Q 1450 388 1819 388 
Q 2194 388 2461 705 
Q 2728 1022 2728 1688 
Q 2728 2322 2467 2637 
Q 2206 2953 1844 2953 
Q 1484 2953 1207 2617 
Q 931 2281 931 1641 
z
" transform="scale(0.015625)"/>
        <path id="ArialMT-42" d="M 469 0 
L 469 4581 
L 2188 4581 
Q 2713 4581 3030 4442 
Q 3347 4303 3526 4014 
Q 3706 3725 3706 3409 
Q 3706 3116 3547 2856 
Q 3388 2597 3066 2438 
Q 3481 2316 3704 2022 
Q 3928 1728 3928 1328 
Q 3928 1006 3792 729 
Q 3656 453 3456 303 
Q 3256 153 2954 76 
Q 2653 0 2216 0 
L 469 0 
z
M 1075 2656 
L 2066 2656 
Q 2469 2656 2644 2709 
Q 2875 2778 2992 2937 
Q 3109 3097 3109 3338 
Q 3109 3566 3000 3739 
Q 2891 3913 2687 3977 
Q 2484 4041 1991 4041 
L 1075 4041 
L 1075 2656 
z
M 1075 541 
L 2216 541 
Q 2509 541 2628 563 
Q 2838 600 2978 687 
Q 3119 775 3209 942 
Q 3300 1109 3300 1328 
Q 3300 1584 3169 1773 
Q 3038 1963 2805 2039 
Q 2572 2116 2134 2116 
L 1075 2116 
L 1075 541 
z
" transform="scale(0.015625)"/>
        <path id="ArialMT-72" d="M 416 0 
L 416 3319 
L 922 3319 
L 922 2816 
Q 1116 3169 1280 3281 
Q 1444 3394 1641 3394 
Q 1925 3394 2219 3213 
L 2025 2691 
Q 1819 2813 1613 2813 
Q 1428 2813 1281 2702 
Q 1134 2591 1072 2394 
Q 978 2094 978 1738 
L 978 0 
L 416 0 
z
" transform="scale(0.015625)"/>
        <path id="ArialMT-63" d="M 2588 1216 
L 3141 1144 
Q 3050 572 2676 248 
Q 2303 -75 1759 -75 
Q 1078 -75 664 370 
Q 250 816 250 1647 
Q 250 2184 428 2587 
Q 606 2991 970 3192 
Q 1334 3394 1763 3394 
Q 2303 3394 2647 3120 
Q 2991 2847 3088 2344 
L 2541 2259 
Q 2463 2594 2264 2762 
Q 2066 2931 1784 2931 
Q 1359 2931 1093 2626 
Q 828 2322 828 1663 
Q 828 994 1084 691 
Q 1341 388 1753 388 
Q 2084 388 2306 591 
Q 2528 794 2588 1216 
z
" transform="scale(0.015625)"/>
        <path id="ArialMT-68" d="M 422 0 
L 422 4581 
L 984 4581 
L 984 2938 
Q 1378 3394 1978 3394 
Q 2347 3394 2619 3248 
Q 2891 3103 3008 2847 
Q 3125 2591 3125 2103 
L 3125 0 
L 2563 0 
L 2563 2103 
Q 2563 2525 2380 2717 
Q 2197 2909 1863 2909 
Q 1613 2909 1392 2779 
Q 1172 2650 1078 2428 
Q 984 2206 984 1816 
L 984 0 
L 422 0 
z
" transform="scale(0.015625)"/>
        <path id="ArialMT-54" d="M 1659 0 
L 1659 4041 
L 150 4041 
L 150 4581 
L 3781 4581 
L 3781 4041 
L 2266 4041 
L 2266 0 
L 1659 0 
z
" transform="scale(0.015625)"/>
        <path id="ArialMT-67" d="M 319 -275 
L 866 -356 
Q 900 -609 1056 -725 
Q 1266 -881 1628 -881 
Q 2019 -881 2231 -725 
Q 2444 -569 2519 -288 
Q 2563 -116 2559 434 
Q 2191 0 1641 0 
Q 956 0 581 494 
Q 206 988 206 1678 
Q 206 2153 378 2554 
Q 550 2956 876 3175 
Q 1203 3394 1644 3394 
Q 2231 3394 2613 2919 
L 2613 3319 
L 3131 3319 
L 3131 450 
Q 3131 -325 2973 -648 
Q 2816 -972 2473 -1159 
Q 2131 -1347 1631 -1347 
Q 1038 -1347 672 -1080 
Q 306 -813 319 -275 
z
M 784 1719 
Q 784 1066 1043 766 
Q 1303 466 1694 466 
Q 2081 466 2343 764 
Q 2606 1063 2606 1700 
Q 2606 2309 2336 2618 
Q 2066 2928 1684 2928 
Q 1309 2928 1046 2623 
Q 784 2319 784 1719 
z
" transform="scale(0.015625)"/>
       </defs>
       <use xlink:href="#ArialMT-47"/>
       <use xlink:href="#ArialMT-3a" x="77.783203"/>
       <use xlink:href="#ArialMT-53" x="105.566406"/>
       <use xlink:href="#ArialMT-77" x="172.265625"/>
       <use xlink:href="#ArialMT-61" x="244.482422"/>
       <use xlink:href="#ArialMT-70" x="300.097656"/>
       <use xlink:href="#ArialMT-20" x="355.712891"/>
       <use xlink:href="#ArialMT-42" x="383.496094"/>
       <use xlink:href="#ArialMT-72" x="450.195312"/>
       <use xlink:href="#ArialMT-61" x="483.496094"/>
       <use xlink:href="#ArialMT-6e" x="539.111328"/>
       <use xlink:href="#ArialMT-63" x="594.726562"/>
       <use xlink:href="#ArialMT-68" x="644.726562"/>
       <use xlink:href="#ArialMT-20" x="700.341797"/>
       <use xlink:href="#ArialMT-54" x="726.375"/>
       <use xlink:href="#ArialMT-61" x="776.333984"/>
       <use xlink:href="#ArialMT-72" x="831.949219"/>
       <use xlink:href="#ArialMT-67" x="865.25"/>
       <use xlink:href="#ArialMT-65" x="920.865234"/>
       <use xlink:href="#ArialMT-74" x="976.480469"/>
       <use xlink:href="#ArialMT-73" x="1004.263672"/>
      </g>
     </g>
    </g>
    <g id="ytick_4">
     <g id="line2d_19">
      <path d="M 116.120313 105.57321 
L 696.440313 105.57321 
" clip-path="url(#p04d7625514)" style="fill: none; stroke: #cccccc; stroke-width: 0.8; stroke-linecap: round"/>
     </g>
     <g id="line2d_20"/>
     <g id="text_11">
      <!-- G:Change Icmp Pred -->
      <g style="fill: #262626" transform="translate(18.690625 109.213053) scale(0.1 -0.1)">
       <defs>
        <path id="ArialMT-43" d="M 3763 1606 
L 4369 1453 
Q 4178 706 3683 314 
Q 3188 -78 2472 -78 
Q 1731 -78 1267 223 
Q 803 525 561 1097 
Q 319 1669 319 2325 
Q 319 3041 592 3573 
Q 866 4106 1370 4382 
Q 1875 4659 2481 4659 
Q 3169 4659 3637 4309 
Q 4106 3959 4291 3325 
L 3694 3184 
Q 3534 3684 3231 3912 
Q 2928 4141 2469 4141 
Q 1941 4141 1586 3887 
Q 1231 3634 1087 3207 
Q 944 2781 944 2328 
Q 944 1744 1114 1308 
Q 1284 872 1643 656 
Q 2003 441 2422 441 
Q 2931 441 3284 734 
Q 3638 1028 3763 1606 
z
" transform="scale(0.015625)"/>
        <path id="ArialMT-49" d="M 597 0 
L 597 4581 
L 1203 4581 
L 1203 0 
L 597 0 
z
" transform="scale(0.015625)"/>
        <path id="ArialMT-50" d="M 494 0 
L 494 4581 
L 2222 4581 
Q 2678 4581 2919 4538 
Q 3256 4481 3484 4323 
Q 3713 4166 3852 3881 
Q 3991 3597 3991 3256 
Q 3991 2672 3619 2267 
Q 3247 1863 2275 1863 
L 1100 1863 
L 1100 0 
L 494 0 
z
M 1100 2403 
L 2284 2403 
Q 2872 2403 3119 2622 
Q 3366 2841 3366 3238 
Q 3366 3525 3220 3729 
Q 3075 3934 2838 4000 
Q 2684 4041 2272 4041 
L 1100 4041 
L 1100 2403 
z
" transform="scale(0.015625)"/>
       </defs>
       <use xlink:href="#ArialMT-47"/>
       <use xlink:href="#ArialMT-3a" x="77.783203"/>
       <use xlink:href="#ArialMT-43" x="105.566406"/>
       <use xlink:href="#ArialMT-68" x="177.783203"/>
       <use xlink:href="#ArialMT-61" x="233.398438"/>
       <use xlink:href="#ArialMT-6e" x="289.013672"/>
       <use xlink:href="#ArialMT-67" x="344.628906"/>
       <use xlink:href="#ArialMT-65" x="400.244141"/>
       <use xlink:href="#ArialMT-20" x="455.859375"/>
       <use xlink:href="#ArialMT-49" x="483.642578"/>
       <use xlink:href="#ArialMT-63" x="511.425781"/>
       <use xlink:href="#ArialMT-6d" x="561.425781"/>
       <use xlink:href="#ArialMT-70" x="644.726562"/>
       <use xlink:href="#ArialMT-20" x="700.341797"/>
       <use xlink:href="#ArialMT-50" x="728.125"/>
       <use xlink:href="#ArialMT-72" x="794.824219"/>
       <use xlink:href="#ArialMT-65" x="828.125"/>
       <use xlink:href="#ArialMT-64" x="883.740234"/>
      </g>
     </g>
    </g>
    <g id="ytick_5">
     <g id="line2d_21">
      <path d="M 116.120313 126.919092 
L 696.440313 126.919092 
" clip-path="url(#p04d7625514)" style="fill: none; stroke: #cccccc; stroke-width: 0.8; stroke-linecap: round"/>
     </g>
     <g id="line2d_22"/>
     <g id="text_12">
      <!-- G:Swap Operands -->
      <g style="fill: #262626" transform="translate(30.359375 130.562061) scale(0.1 -0.1)">
       <defs>
        <path id="ArialMT-4f" d="M 309 2231 
Q 309 3372 921 4017 
Q 1534 4663 2503 4663 
Q 3138 4663 3647 4359 
Q 4156 4056 4423 3514 
Q 4691 2972 4691 2284 
Q 4691 1588 4409 1038 
Q 4128 488 3612 205 
Q 3097 -78 2500 -78 
Q 1853 -78 1343 234 
Q 834 547 571 1087 
Q 309 1628 309 2231 
z
M 934 2222 
Q 934 1394 1379 917 
Q 1825 441 2497 441 
Q 3181 441 3623 922 
Q 4066 1403 4066 2288 
Q 4066 2847 3877 3264 
Q 3688 3681 3323 3911 
Q 2959 4141 2506 4141 
Q 1863 4141 1398 3698 
Q 934 3256 934 2222 
z
" transform="scale(0.015625)"/>
       </defs>
       <use xlink:href="#ArialMT-47"/>
       <use xlink:href="#ArialMT-3a" x="77.783203"/>
       <use xlink:href="#ArialMT-53" x="105.566406"/>
       <use xlink:href="#ArialMT-77" x="172.265625"/>
       <use xlink:href="#ArialMT-61" x="244.482422"/>
       <use xlink:href="#ArialMT-70" x="300.097656"/>
       <use xlink:href="#ArialMT-20" x="355.712891"/>
       <use xlink:href="#ArialMT-4f" x="383.496094"/>
       <use xlink:href="#ArialMT-70" x="461.279297"/>
       <use xlink:href="#ArialMT-65" x="516.894531"/>
       <use xlink:href="#ArialMT-72" x="572.509766"/>
       <use xlink:href="#ArialMT-61" x="605.810547"/>
       <use xlink:href="#ArialMT-6e" x="661.425781"/>
       <use xlink:href="#ArialMT-64" x="717.041016"/>
       <use xlink:href="#ArialMT-73" x="772.65625"/>
      </g>
     </g>
    </g>
    <g id="ytick_6">
     <g id="line2d_23">
      <path d="M 116.120313 148.264974 
L 696.440313 148.264974 
" clip-path="url(#p04d7625514)" style="fill: none; stroke: #cccccc; stroke-width: 0.8; stroke-linecap: round"/>
     </g>
     <g id="line2d_24"/>
     <g id="text_13">
      <!-- G:Replace Binop -->
      <g style="fill: #262626" transform="translate(37.023438 151.904818) scale(0.1 -0.1)">
       <defs>
        <path id="ArialMT-6f" d="M 213 1659 
Q 213 2581 725 3025 
Q 1153 3394 1769 3394 
Q 2453 3394 2887 2945 
Q 3322 2497 3322 1706 
Q 3322 1066 3130 698 
Q 2938 331 2570 128 
Q 2203 -75 1769 -75 
Q 1072 -75 642 372 
Q 213 819 213 1659 
z
M 791 1659 
Q 791 1022 1069 705 
Q 1347 388 1769 388 
Q 2188 388 2466 706 
Q 2744 1025 2744 1678 
Q 2744 2294 2464 2611 
Q 2184 2928 1769 2928 
Q 1347 2928 1069 2612 
Q 791 2297 791 1659 
z
" transform="scale(0.015625)"/>
       </defs>
       <use xlink:href="#ArialMT-47"/>
       <use xlink:href="#ArialMT-3a" x="77.783203"/>
       <use xlink:href="#ArialMT-52" x="105.566406"/>
       <use xlink:href="#ArialMT-65" x="177.783203"/>
       <use xlink:href="#ArialMT-70" x="233.398438"/>
       <use xlink:href="#ArialMT-6c" x="289.013672"/>
       <use xlink:href="#ArialMT-61" x="311.230469"/>
       <use xlink:href="#ArialMT-63" x="366.845703"/>
       <use xlink:href="#ArialMT-65" x="416.845703"/>
       <use xlink:href="#ArialMT-20" x="472.460938"/>
       <use xlink:href="#ArialMT-42" x="500.244141"/>
       <use xlink:href="#ArialMT-69" x="566.943359"/>
       <use xlink:href="#ArialMT-6e" x="589.160156"/>
       <use xlink:href="#ArialMT-6f" x="644.775391"/>
       <use xlink:href="#ArialMT-70" x="700.390625"/>
      </g>
     </g>
    </g>
    <g id="ytick_7">
     <g id="line2d_25">
      <path d="M 116.120313 169.610857 
L 696.440313 169.610857 
" clip-path="url(#p04d7625514)" style="fill: none; stroke: #cccccc; stroke-width: 0.8; stroke-linecap: round"/>
     </g>
     <g id="line2d_26"/>
     <g id="text_14">
      <!-- G:Duplicate Instruction -->
      <g style="fill: #262626" transform="translate(11.46875 173.2507) scale(0.1 -0.1)">
       <defs>
        <path id="ArialMT-44" d="M 494 0 
L 494 4581 
L 2072 4581 
Q 2606 4581 2888 4516 
Q 3281 4425 3559 4188 
Q 3922 3881 4101 3404 
Q 4281 2928 4281 2316 
Q 4281 1794 4159 1391 
Q 4038 988 3847 723 
Q 3656 459 3429 307 
Q 3203 156 2883 78 
Q 2563 0 2147 0 
L 494 0 
z
M 1100 541 
L 2078 541 
Q 2531 541 2789 625 
Q 3047 709 3200 863 
Q 3416 1078 3536 1442 
Q 3656 1806 3656 2325 
Q 3656 3044 3420 3430 
Q 3184 3816 2847 3947 
Q 2603 4041 2063 4041 
L 1100 4041 
L 1100 541 
z
" transform="scale(0.015625)"/>
       </defs>
       <use xlink:href="#ArialMT-47"/>
       <use xlink:href="#ArialMT-3a" x="77.783203"/>
       <use xlink:href="#ArialMT-44" x="105.566406"/>
       <use xlink:href="#ArialMT-75" x="177.783203"/>
       <use xlink:href="#ArialMT-70" x="233.398438"/>
       <use xlink:href="#ArialMT-6c" x="289.013672"/>
       <use xlink:href="#ArialMT-69" x="311.230469"/>
       <use xlink:href="#ArialMT-63" x="333.447266"/>
       <use xlink:href="#ArialMT-61" x="383.447266"/>
       <use xlink:href="#ArialMT-74" x="439.0625"/>
       <use xlink:href="#ArialMT-65" x="466.845703"/>
       <use xlink:href="#ArialMT-20" x="522.460938"/>
       <use xlink:href="#ArialMT-49" x="550.244141"/>
       <use xlink:href="#ArialMT-6e" x="578.027344"/>
       <use xlink:href="#ArialMT-73" x="633.642578"/>
       <use xlink:href="#ArialMT-74" x="683.642578"/>
       <use xlink:href="#ArialMT-72" x="711.425781"/>
       <use xlink:href="#ArialMT-75" x="744.726562"/>
       <use xlink:href="#ArialMT-63" x="800.341797"/>
       <use xlink:href="#ArialMT-74" x="850.341797"/>
       <use xlink:href="#ArialMT-69" x="878.125"/>
       <use xlink:href="#ArialMT-6f" x="900.341797"/>
       <use xlink:href="#ArialMT-6e" x="955.957031"/>
      </g>
     </g>
    </g>
    <g id="ytick_8">
     <g id="line2d_27">
      <path d="M 116.120313 190.956739 
L 696.440313 190.956739 
" clip-path="url(#p04d7625514)" style="fill: none; stroke: #cccccc; stroke-width: 0.8; stroke-linecap: round"/>
     </g>
     <g id="line2d_28"/>
     <g id="text_15">
      <!-- G:Toggle Overflow Flag -->
      <g style="fill: #262626" transform="translate(8.14375 194.599708) scale(0.1 -0.1)">
       <defs>
        <path id="ArialMT-76" d="M 1344 0 
L 81 3319 
L 675 3319 
L 1388 1331 
Q 1503 1009 1600 663 
Q 1675 925 1809 1294 
L 2547 3319 
L 3125 3319 
L 1869 0 
L 1344 0 
z
" transform="scale(0.015625)"/>
        <path id="ArialMT-46" d="M 525 0 
L 525 4581 
L 3616 4581 
L 3616 4041 
L 1131 4041 
L 1131 2622 
L 3281 2622 
L 3281 2081 
L 1131 2081 
L 1131 0 
L 525 0 
z
" transform="scale(0.015625)"/>
       </defs>
       <use xlink:href="#ArialMT-47"/>
       <use xlink:href="#ArialMT-3a" x="77.783203"/>
       <use xlink:href="#ArialMT-54" x="105.566406"/>
       <use xlink:href="#ArialMT-6f" x="155.525391"/>
       <use xlink:href="#ArialMT-67" x="211.140625"/>
       <use xlink:href="#ArialMT-67" x="266.755859"/>
       <use xlink:href="#ArialMT-6c" x="322.371094"/>
       <use xlink:href="#ArialMT-65" x="344.587891"/>
       <use xlink:href="#ArialMT-20" x="400.203125"/>
       <use xlink:href="#ArialMT-4f" x="427.986328"/>
       <use xlink:href="#ArialMT-76" x="505.769531"/>
       <use xlink:href="#ArialMT-65" x="555.769531"/>
       <use xlink:href="#ArialMT-72" x="611.384766"/>
       <use xlink:href="#ArialMT-66" x="644.685547"/>
       <use xlink:href="#ArialMT-6c" x="672.46875"/>
       <use xlink:href="#ArialMT-6f" x="694.685547"/>
       <use xlink:href="#ArialMT-77" x="750.300781"/>
       <use xlink:href="#ArialMT-20" x="822.517578"/>
       <use xlink:href="#ArialMT-46" x="850.300781"/>
       <use xlink:href="#ArialMT-6c" x="911.384766"/>
       <use xlink:href="#ArialMT-61" x="933.601562"/>
       <use xlink:href="#ArialMT-67" x="989.216797"/>
      </g>
     </g>
    </g>
    <g id="ytick_9">
     <g id="line2d_29">
      <path d="M 116.120313 212.302621 
L 696.440313 212.302621 
" clip-path="url(#p04d7625514)" style="fill: none; stroke: #cccccc; stroke-width: 0.8; stroke-linecap: round"/>
     </g>
     <g id="line2d_30"/>
     <g id="text_16">
      <!-- G:Change Constant -->
      <g style="fill: #262626" transform="translate(24.2375 215.942465) scale(0.1 -0.1)">
       <use xlink:href="#ArialMT-47"/>
       <use xlink:href="#ArialMT-3a" x="77.783203"/>
       <use xlink:href="#ArialMT-43" x="105.566406"/>
       <use xlink:href="#ArialMT-68" x="177.783203"/>
       <use xlink:href="#ArialMT-61" x="233.398438"/>
       <use xlink:href="#ArialMT-6e" x="289.013672"/>
       <use xlink:href="#ArialMT-67" x="344.628906"/>
       <use xlink:href="#ArialMT-65" x="400.244141"/>
       <use xlink:href="#ArialMT-20" x="455.859375"/>
       <use xlink:href="#ArialMT-43" x="483.642578"/>
       <use xlink:href="#ArialMT-6f" x="555.859375"/>
       <use xlink:href="#ArialMT-6e" x="611.474609"/>
       <use xlink:href="#ArialMT-73" x="667.089844"/>
       <use xlink:href="#ArialMT-74" x="717.089844"/>
       <use xlink:href="#ArialMT-61" x="744.873047"/>
       <use xlink:href="#ArialMT-6e" x="800.488281"/>
       <use xlink:href="#ArialMT-74" x="856.103516"/>
      </g>
     </g>
    </g>
    <g id="ytick_10">
     <g id="line2d_31">
      <path d="M 116.120313 233.648504 
L 696.440313 233.648504 
" clip-path="url(#p04d7625514)" style="fill: none; stroke: #cccccc; stroke-width: 0.8; stroke-linecap: round"/>
     </g>
     <g id="line2d_32"/>
     <g id="text_17">
      <!-- G:Remove Nsw Nuw -->
      <g style="fill: #262626" transform="translate(19.825 237.22741) scale(0.1 -0.1)">
       <use xlink:href="#ArialMT-47"/>
       <use xlink:href="#ArialMT-3a" x="77.783203"/>
       <use xlink:href="#ArialMT-52" x="105.566406"/>
       <use xlink:href="#ArialMT-65" x="177.783203"/>
       <use xlink:href="#ArialMT-6d" x="233.398438"/>
       <use xlink:href="#ArialMT-6f" x="316.699219"/>
       <use xlink:href="#ArialMT-76" x="372.314453"/>
       <use xlink:href="#ArialMT-65" x="422.314453"/>
       <use xlink:href="#ArialMT-20" x="477.929688"/>
       <use xlink:href="#ArialMT-4e" x="505.712891"/>
       <use xlink:href="#ArialMT-73" x="577.929688"/>
       <use xlink:href="#ArialMT-77" x="627.929688"/>
       <use xlink:href="#ArialMT-20" x="700.146484"/>
       <use xlink:href="#ArialMT-4e" x="727.929688"/>
       <use xlink:href="#ArialMT-75" x="800.146484"/>
       <use xlink:href="#ArialMT-77" x="855.761719"/>
      </g>
     </g>
    </g>
    <g id="ytick_11">
     <g id="line2d_33">
      <path d="M 116.120313 254.994386 
L 696.440313 254.994386 
" clip-path="url(#p04d7625514)" style="fill: none; stroke: #cccccc; stroke-width: 0.8; stroke-linecap: round"/>
     </g>
     <g id="line2d_34"/>
     <g id="text_18">
      <!-- From Scratch -->
      <g style="fill: #262626" transform="translate(52.614063 258.573292) scale(0.1 -0.1)">
       <use xlink:href="#ArialMT-46"/>
       <use xlink:href="#ArialMT-72" x="61.083984"/>
       <use xlink:href="#ArialMT-6f" x="94.384766"/>
       <use xlink:href="#ArialMT-6d" x="150"/>
       <use xlink:href="#ArialMT-20" x="233.300781"/>
       <use xlink:href="#ArialMT-53" x="261.083984"/>
       <use xlink:href="#ArialMT-63" x="327.783203"/>
       <use xlink:href="#ArialMT-72" x="377.783203"/>
       <use xlink:href="#ArialMT-61" x="411.083984"/>
       <use xlink:href="#ArialMT-74" x="466.699219"/>
       <use xlink:href="#ArialMT-63" x="494.482422"/>
       <use xlink:href="#ArialMT-68" x="544.482422"/>
      </g>
     </g>
    </g>
    <g id="ytick_12">
     <g id="line2d_35">
      <path d="M 116.120313 276.340268 
L 696.440313 276.340268 
" clip-path="url(#p04d7625514)" style="fill: none; stroke: #cccccc; stroke-width: 0.8; stroke-linecap: round"/>
     </g>
     <g id="line2d_36"/>
     <g id="text_19">
      <!-- Mutation -->
      <g style="fill: #262626" transform="translate(74.26875 279.919175) scale(0.1 -0.1)">
       <defs>
        <path id="ArialMT-4d" d="M 475 0 
L 475 4581 
L 1388 4581 
L 2472 1338 
Q 2622 884 2691 659 
Q 2769 909 2934 1394 
L 4031 4581 
L 4847 4581 
L 4847 0 
L 4263 0 
L 4263 3834 
L 2931 0 
L 2384 0 
L 1059 3900 
L 1059 0 
L 475 0 
z
" transform="scale(0.015625)"/>
       </defs>
       <use xlink:href="#ArialMT-4d"/>
       <use xlink:href="#ArialMT-75" x="83.300781"/>
       <use xlink:href="#ArialMT-74" x="138.916016"/>
       <use xlink:href="#ArialMT-61" x="166.699219"/>
       <use xlink:href="#ArialMT-74" x="222.314453"/>
       <use xlink:href="#ArialMT-69" x="250.097656"/>
       <use xlink:href="#ArialMT-6f" x="272.314453"/>
       <use xlink:href="#ArialMT-6e" x="327.929688"/>
      </g>
     </g>
    </g>
    <g id="ytick_13">
     <g id="line2d_37">
      <path d="M 116.120313 297.686151 
L 696.440313 297.686151 
" clip-path="url(#p04d7625514)" style="fill: none; stroke: #cccccc; stroke-width: 0.8; stroke-linecap: round"/>
     </g>
     <g id="line2d_38"/>
     <g id="text_20">
      <!-- G:Insert Dead Code -->
      <g style="fill: #262626" transform="translate(23.690625 301.265057) scale(0.1 -0.1)">
       <use xlink:href="#ArialMT-47"/>
       <use xlink:href="#ArialMT-3a" x="77.783203"/>
       <use xlink:href="#ArialMT-49" x="105.566406"/>
       <use xlink:href="#ArialMT-6e" x="133.349609"/>
       <use xlink:href="#ArialMT-73" x="188.964844"/>
       <use xlink:href="#ArialMT-65" x="238.964844"/>
       <use xlink:href="#ArialMT-72" x="294.580078"/>
       <use xlink:href="#ArialMT-74" x="327.880859"/>
       <use xlink:href="#ArialMT-20" x="355.664062"/>
       <use xlink:href="#ArialMT-44" x="383.447266"/>
       <use xlink:href="#ArialMT-65" x="455.664062"/>
       <use xlink:href="#ArialMT-61" x="511.279297"/>
       <use xlink:href="#ArialMT-64" x="566.894531"/>
       <use xlink:href="#ArialMT-20" x="622.509766"/>
       <use xlink:href="#ArialMT-43" x="650.292969"/>
       <use xlink:href="#ArialMT-6f" x="722.509766"/>
       <use xlink:href="#ArialMT-64" x="778.125"/>
       <use xlink:href="#ArialMT-65" x="833.740234"/>
      </g>
     </g>
    </g>
    <g id="ytick_14">
     <g id="line2d_39">
      <path d="M 116.120313 319.032033 
L 696.440313 319.032033 
" clip-path="url(#p04d7625514)" style="fill: none; stroke: #cccccc; stroke-width: 0.8; stroke-linecap: round"/>
     </g>
     <g id="line2d_40"/>
     <g id="text_21">
      <!-- R:R:Line Swap -->
      <g style="fill: #262626" transform="translate(45.923438 322.671877) scale(0.1 -0.1)">
       <defs>
        <path id="ArialMT-4c" d="M 469 0 
L 469 4581 
L 1075 4581 
L 1075 541 
L 3331 541 
L 3331 0 
L 469 0 
z
" transform="scale(0.015625)"/>
       </defs>
       <use xlink:href="#ArialMT-52"/>
       <use xlink:href="#ArialMT-3a" x="72.216797"/>
       <use xlink:href="#ArialMT-52" x="100"/>
       <use xlink:href="#ArialMT-3a" x="172.216797"/>
       <use xlink:href="#ArialMT-4c" x="200"/>
       <use xlink:href="#ArialMT-69" x="255.615234"/>
       <use xlink:href="#ArialMT-6e" x="277.832031"/>
       <use xlink:href="#ArialMT-65" x="333.447266"/>
       <use xlink:href="#ArialMT-20" x="389.0625"/>
       <use xlink:href="#ArialMT-53" x="416.845703"/>
       <use xlink:href="#ArialMT-77" x="483.544922"/>
       <use xlink:href="#ArialMT-61" x="555.761719"/>
       <use xlink:href="#ArialMT-70" x="611.376953"/>
      </g>
     </g>
    </g>
    <g id="ytick_15">
     <g id="line2d_41">
      <path d="M 116.120313 340.377915 
L 696.440313 340.377915 
" clip-path="url(#p04d7625514)" style="fill: none; stroke: #cccccc; stroke-width: 0.8; stroke-linecap: round"/>
     </g>
     <g id="line2d_42"/>
     <g id="text_22">
      <!-- R:R:Line Duplicate -->
      <g style="fill: #262626" transform="translate(29.25 343.956822) scale(0.1 -0.1)">
       <use xlink:href="#ArialMT-52"/>
       <use xlink:href="#ArialMT-3a" x="72.216797"/>
       <use xlink:href="#ArialMT-52" x="100"/>
       <use xlink:href="#ArialMT-3a" x="172.216797"/>
       <use xlink:href="#ArialMT-4c" x="200"/>
       <use xlink:href="#ArialMT-69" x="255.615234"/>
       <use xlink:href="#ArialMT-6e" x="277.832031"/>
       <use xlink:href="#ArialMT-65" x="333.447266"/>
       <use xlink:href="#ArialMT-20" x="389.0625"/>
       <use xlink:href="#ArialMT-44" x="416.845703"/>
       <use xlink:href="#ArialMT-75" x="489.0625"/>
       <use xlink:href="#ArialMT-70" x="544.677734"/>
       <use xlink:href="#ArialMT-6c" x="600.292969"/>
       <use xlink:href="#ArialMT-69" x="622.509766"/>
       <use xlink:href="#ArialMT-63" x="644.726562"/>
       <use xlink:href="#ArialMT-61" x="694.726562"/>
       <use xlink:href="#ArialMT-74" x="750.341797"/>
       <use xlink:href="#ArialMT-65" x="778.125"/>
      </g>
     </g>
    </g>
    <g id="ytick_16">
     <g id="line2d_43">
      <path d="M 116.120313 361.723798 
L 696.440313 361.723798 
" clip-path="url(#p04d7625514)" style="fill: none; stroke: #cccccc; stroke-width: 0.8; stroke-linecap: round"/>
     </g>
     <g id="line2d_44"/>
     <g id="text_23">
      <!-- R:R:Line Delete -->
      <g style="fill: #262626" transform="translate(42.032813 365.302704) scale(0.1 -0.1)">
       <use xlink:href="#ArialMT-52"/>
       <use xlink:href="#ArialMT-3a" x="72.216797"/>
       <use xlink:href="#ArialMT-52" x="100"/>
       <use xlink:href="#ArialMT-3a" x="172.216797"/>
       <use xlink:href="#ArialMT-4c" x="200"/>
       <use xlink:href="#ArialMT-69" x="255.615234"/>
       <use xlink:href="#ArialMT-6e" x="277.832031"/>
       <use xlink:href="#ArialMT-65" x="333.447266"/>
       <use xlink:href="#ArialMT-20" x="389.0625"/>
       <use xlink:href="#ArialMT-44" x="416.845703"/>
       <use xlink:href="#ArialMT-65" x="489.0625"/>
       <use xlink:href="#ArialMT-6c" x="544.677734"/>
       <use xlink:href="#ArialMT-65" x="566.894531"/>
       <use xlink:href="#ArialMT-74" x="622.509766"/>
       <use xlink:href="#ArialMT-65" x="650.292969"/>
      </g>
     </g>
    </g>
    <g id="ytick_17">
     <g id="line2d_45">
      <path d="M 116.120313 383.06968 
L 696.440313 383.06968 
" clip-path="url(#p04d7625514)" style="fill: none; stroke: #cccccc; stroke-width: 0.8; stroke-linecap: round"/>
     </g>
     <g id="line2d_46"/>
     <g id="text_24">
      <!-- R:R:Char Flip -->
      <g style="fill: #262626" transform="translate(52.05625 386.709524) scale(0.1 -0.1)">
       <use xlink:href="#ArialMT-52"/>
       <use xlink:href="#ArialMT-3a" x="72.216797"/>
       <use xlink:href="#ArialMT-52" x="100"/>
       <use xlink:href="#ArialMT-3a" x="172.216797"/>
       <use xlink:href="#ArialMT-43" x="200"/>
       <use xlink:href="#ArialMT-68" x="272.216797"/>
       <use xlink:href="#ArialMT-61" x="327.832031"/>
       <use xlink:href="#ArialMT-72" x="383.447266"/>
       <use xlink:href="#ArialMT-20" x="416.748047"/>
       <use xlink:href="#ArialMT-46" x="444.53125"/>
       <use xlink:href="#ArialMT-6c" x="505.615234"/>
       <use xlink:href="#ArialMT-69" x="527.832031"/>
       <use xlink:href="#ArialMT-70" x="550.048828"/>
      </g>
     </g>
    </g>
    <g id="ytick_18">
     <g id="line2d_47">
      <path d="M 116.120313 404.415562 
L 696.440313 404.415562 
" clip-path="url(#p04d7625514)" style="fill: none; stroke: #cccccc; stroke-width: 0.8; stroke-linecap: round"/>
     </g>
     <g id="line2d_48"/>
     <g id="text_25">
      <!-- R:R:Word Replace -->
      <g style="fill: #262626" transform="translate(29.439063 407.994469) scale(0.1 -0.1)">
       <defs>
        <path id="ArialMT-57" d="M 1294 0 
L 78 4581 
L 700 4581 
L 1397 1578 
Q 1509 1106 1591 641 
Q 1766 1375 1797 1488 
L 2669 4581 
L 3400 4581 
L 4056 2263 
Q 4303 1400 4413 641 
Q 4500 1075 4641 1638 
L 5359 4581 
L 5969 4581 
L 4713 0 
L 4128 0 
L 3163 3491 
Q 3041 3928 3019 4028 
Q 2947 3713 2884 3491 
L 1913 0 
L 1294 0 
z
" transform="scale(0.015625)"/>
       </defs>
       <use xlink:href="#ArialMT-52"/>
       <use xlink:href="#ArialMT-3a" x="72.216797"/>
       <use xlink:href="#ArialMT-52" x="100"/>
       <use xlink:href="#ArialMT-3a" x="172.216797"/>
       <use xlink:href="#ArialMT-57" x="200"/>
       <use xlink:href="#ArialMT-6f" x="292.634766"/>
       <use xlink:href="#ArialMT-72" x="348.25"/>
       <use xlink:href="#ArialMT-64" x="381.550781"/>
       <use xlink:href="#ArialMT-20" x="437.166016"/>
       <use xlink:href="#ArialMT-52" x="464.949219"/>
       <use xlink:href="#ArialMT-65" x="537.166016"/>
       <use xlink:href="#ArialMT-70" x="592.78125"/>
       <use xlink:href="#ArialMT-6c" x="648.396484"/>
       <use xlink:href="#ArialMT-61" x="670.613281"/>
       <use xlink:href="#ArialMT-63" x="726.228516"/>
       <use xlink:href="#ArialMT-65" x="776.228516"/>
      </g>
     </g>
    </g>
   </g>
   <g id="LineCollection_1">
    <path d="M 116.120313 41.535562 
L 653.453646 41.535562 
" clip-path="url(#p04d7625514)" style="fill: none; stroke: #2a9d8f; stroke-opacity: 0.9; stroke-width: 2.6"/>
    <path d="M 116.120313 62.881445 
L 653.453646 62.881445 
" clip-path="url(#p04d7625514)" style="fill: none; stroke: #e9c46a; stroke-opacity: 0.9; stroke-width: 2.6"/>
    <path d="M 116.120313 84.227327 
L 653.453646 84.227327 
" clip-path="url(#p04d7625514)" style="fill: none; stroke: #e9c46a; stroke-opacity: 0.9; stroke-width: 2.6"/>
    <path d="M 116.120313 105.57321 
L 653.453646 105.57321 
" clip-path="url(#p04d7625514)" style="fill: none; stroke: #e9c46a; stroke-opacity: 0.9; stroke-width: 2.6"/>
    <path d="M 116.120313 126.919092 
L 653.453646 126.919092 
" clip-path="url(#p04d7625514)" style="fill: none; stroke: #e9c46a; stroke-opacity: 0.9; stroke-width: 2.6"/>
    <path d="M 116.120313 148.264974 
L 653.453646 148.264974 
" clip-path="url(#p04d7625514)" style="fill: none; stroke: #e9c46a; stroke-opacity: 0.9; stroke-width: 2.6"/>
    <path d="M 116.120313 169.610857 
L 653.453646 169.610857 
" clip-path="url(#p04d7625514)" style="fill: none; stroke: #e9c46a; stroke-opacity: 0.9; stroke-width: 2.6"/>
    <path d="M 116.120313 190.956739 
L 545.986979 190.956739 
" clip-path="url(#p04d7625514)" style="fill: none; stroke: #e9c46a; stroke-opacity: 0.9; stroke-width: 2.6"/>
    <path d="M 116.120313 212.302621 
L 545.986979 212.302621 
" clip-path="url(#p04d7625514)" style="fill: none; stroke: #e9c46a; stroke-opacity: 0.9; stroke-width: 2.6"/>
    <path d="M 116.120313 233.648504 
L 545.986979 233.648504 
" clip-path="url(#p04d7625514)" style="fill: none; stroke: #e9c46a; stroke-opacity: 0.9; stroke-width: 2.6"/>
    <path d="M 116.120313 254.994386 
L 510.164757 254.994386 
" clip-path="url(#p04d7625514)" style="fill: none; stroke: #2a9d8f; stroke-opacity: 0.9; stroke-width: 2.6"/>
    <path d="M 116.120313 276.340268 
L 510.164757 276.340268 
" clip-path="url(#p04d7625514)" style="fill: none; stroke: #2a9d8f; stroke-opacity: 0.9; stroke-width: 2.6"/>
    <path d="M 116.120313 297.686151 
L 474.342535 297.686151 
" clip-path="url(#p04d7625514)" style="fill: none; stroke: #e9c46a; stroke-opacity: 0.9; stroke-width: 2.6"/>
    <path d="M 116.120313 319.032033 
L 384.786979 319.032033 
" clip-path="url(#p04d7625514)" style="fill: none; stroke: #e76f51; stroke-opacity: 0.9; stroke-width: 2.6"/>
    <path d="M 116.120313 340.377915 
L 213.817282 340.377915 
" clip-path="url(#p04d7625514)" style="fill: none; stroke: #e76f51; stroke-opacity: 0.9; stroke-width: 2.6"/>
    <path d="M 116.120313 361.723798 
L 198.786979 361.723798 
" clip-path="url(#p04d7625514)" style="fill: none; stroke: #e76f51; stroke-opacity: 0.9; stroke-width: 2.6"/>
    <path d="M 116.120313 383.06968 
L 116.120313 383.06968 
" clip-path="url(#p04d7625514)" style="fill: none; stroke: #e76f51; stroke-opacity: 0.9; stroke-width: 2.6"/>
    <path d="M 116.120313 404.415562 
L 116.120313 404.415562 
" clip-path="url(#p04d7625514)" style="fill: none; stroke: #e76f51; stroke-opacity: 0.9; stroke-width: 2.6"/>
   </g>
   <g id="patch_3">
    <path d="M 116.120313 422.559562 
L 116.120313 23.391562 
" style="fill: none; stroke: #cccccc; stroke-linejoin: miter; stroke-linecap: square"/>
   </g>
   <g id="patch_4">
    <path d="M 696.440313 422.559562 
L 696.440313 23.391562 
" style="fill: none; stroke: #cccccc; stroke-linejoin: miter; stroke-linecap: square"/>
   </g>
   <g id="patch_5">
    <path d="M 116.120313 422.559562 
L 696.440313 422.559562 
" style="fill: none; stroke: #cccccc; stroke-linejoin: miter; stroke-linecap: square"/>
   </g>
   <g id="patch_6">
    <path d="M 116.120313 23.391562 
L 696.440313 23.391562 
" style="fill: none; stroke: #cccccc; stroke-linejoin: miter; stroke-linecap: square"/>
   </g>
   <g id="PathCollection_1">
    <defs>
     <path id="C0_0_32de68f4be" d="M 0 3.741657 
C 0.992299 3.741657 1.94409 3.347413 2.645751 2.645751 
C 3.347413 1.94409 3.741657 0.992299 3.741657 -0 
C 3.741657 -0.992299 3.347413 -1.94409 2.645751 -2.645751 
C 1.94409 -3.347413 0.992299 -3.741657 0 -3.741657 
C -0.992299 -3.741657 -1.94409 -3.347413 -2.645751 -2.645751 
C -3.347413 -1.94409 -3.741657 -0.992299 -3.741657 0 
C -3.741657 0.992299 -3.347413 1.94409 -2.645751 2.645751 
C -1.94409 3.347413 -0.992299 3.741657 0 3.741657 
z
"/>
    </defs>
    <g clip-path="url(#p04d7625514)">
     <use xlink:href="#C0_0_32de68f4be" x="653.453646" y="41.535562" style="fill: #2a9d8f; stroke: #000000; stroke-width: 0.5"/>
    </g>
    <g clip-path="url(#p04d7625514)">
     <use xlink:href="#C0_0_32de68f4be" x="653.453646" y="62.881445" style="fill: #e9c46a; stroke: #000000; stroke-width: 0.5"/>
    </g>
    <g clip-path="url(#p04d7625514)">
     <use xlink:href="#C0_0_32de68f4be" x="653.453646" y="84.227327" style="fill: #e9c46a; stroke: #000000; stroke-width: 0.5"/>
    </g>
    <g clip-path="url(#p04d7625514)">
     <use xlink:href="#C0_0_32de68f4be" x="653.453646" y="105.57321" style="fill: #e9c46a; stroke: #000000; stroke-width: 0.5"/>
    </g>
    <g clip-path="url(#p04d7625514)">
     <use xlink:href="#C0_0_32de68f4be" x="653.453646" y="126.919092" style="fill: #e9c46a; stroke: #000000; stroke-width: 0.5"/>
    </g>
    <g clip-path="url(#p04d7625514)">
     <use xlink:href="#C0_0_32de68f4be" x="653.453646" y="148.264974" style="fill: #e9c46a; stroke: #000000; stroke-width: 0.5"/>
    </g>
    <g clip-path="url(#p04d7625514)">
     <use xlink:href="#C0_0_32de68f4be" x="653.453646" y="169.610857" style="fill: #e9c46a; stroke: #000000; stroke-width: 0.5"/>
    </g>
    <g clip-path="url(#p04d7625514)">
     <use xlink:href="#C0_0_32de68f4be" x="545.986979" y="190.956739" style="fill: #e9c46a; stroke: #000000; stroke-width: 0.5"/>
    </g>
    <g clip-path="url(#p04d7625514)">
     <use xlink:href="#C0_0_32de68f4be" x="545.986979" y="212.302621" style="fill: #e9c46a; stroke: #000000; stroke-width: 0.5"/>
    </g>
    <g clip-path="url(#p04d7625514)">
     <use xlink:href="#C0_0_32de68f4be" x="545.986979" y="233.648504" style="fill: #e9c46a; stroke: #000000; stroke-width: 0.5"/>
    </g>
    <g clip-path="url(#p04d7625514)">
     <use xlink:href="#C0_0_32de68f4be" x="510.164757" y="254.994386" style="fill: #2a9d8f; stroke: #000000; stroke-width: 0.5"/>
    </g>
    <g clip-path="url(#p04d7625514)">
     <use xlink:href="#C0_0_32de68f4be" x="510.164757" y="276.340268" style="fill: #2a9d8f; stroke: #000000; stroke-width: 0.5"/>
    </g>
    <g clip-path="url(#p04d7625514)">
     <use xlink:href="#C0_0_32de68f4be" x="474.342535" y="297.686151" style="fill: #e9c46a; stroke: #000000; stroke-width: 0.5"/>
    </g>
    <g clip-path="url(#p04d7625514)">
     <use xlink:href="#C0_0_32de68f4be" x="384.786979" y="319.032033" style="fill: #e76f51; stroke: #000000; stroke-width: 0.5"/>
    </g>
    <g clip-path="url(#p04d7625514)">
     <use xlink:href="#C0_0_32de68f4be" x="213.817282" y="340.377915" style="fill: #e76f51; stroke: #000000; stroke-width: 0.5"/>
    </g>
    <g clip-path="url(#p04d7625514)">
     <use xlink:href="#C0_0_32de68f4be" x="198.786979" y="361.723798" style="fill: #e76f51; stroke: #000000; stroke-width: 0.5"/>
    </g>
    <g clip-path="url(#p04d7625514)">
     <use xlink:href="#C0_0_32de68f4be" x="116.120313" y="383.06968" style="fill: #e76f51; stroke: #000000; stroke-width: 0.5"/>
    </g>
    <g clip-path="url(#p04d7625514)">
     <use xlink:href="#C0_0_32de68f4be" x="116.120313" y="404.415562" style="fill: #e76f51; stroke: #000000; stroke-width: 0.5"/>
    </g>
   </g>
   <g id="text_26">
    <!-- 100.0% -->
    <g style="fill: #262626" transform="translate(659.901646 43.603687) scale(0.08 -0.08)">
     <defs>
      <path id="ArialMT-2e" d="M 581 0 
L 581 641 
L 1222 641 
L 1222 0 
L 581 0 
z
" transform="scale(0.015625)"/>
     </defs>
     <use xlink:href="#ArialMT-31"/>
     <use xlink:href="#ArialMT-30" x="55.615234"/>
     <use xlink:href="#ArialMT-30" x="111.230469"/>
     <use xlink:href="#ArialMT-2e" x="166.845703"/>
     <use xlink:href="#ArialMT-30" x="194.628906"/>
     <use xlink:href="#ArialMT-25" x="250.244141"/>
    </g>
   </g>
   <g id="text_27">
    <!-- 100.0% -->
    <g style="fill: #262626" transform="translate(659.901646 64.94957) scale(0.08 -0.08)">
     <use xlink:href="#ArialMT-31"/>
     <use xlink:href="#ArialMT-30" x="55.615234"/>
     <use xlink:href="#ArialMT-30" x="111.230469"/>
     <use xlink:href="#ArialMT-2e" x="166.845703"/>
     <use xlink:href="#ArialMT-30" x="194.628906"/>
     <use xlink:href="#ArialMT-25" x="250.244141"/>
    </g>
   </g>
   <g id="text_28">
    <!-- 100.0% -->
    <g style="fill: #262626" transform="translate(659.901646 86.295452) scale(0.08 -0.08)">
     <use xlink:href="#ArialMT-31"/>
     <use xlink:href="#ArialMT-30" x="55.615234"/>
     <use xlink:href="#ArialMT-30" x="111.230469"/>
     <use xlink:href="#ArialMT-2e" x="166.845703"/>
     <use xlink:href="#ArialMT-30" x="194.628906"/>
     <use xlink:href="#ArialMT-25" x="250.244141"/>
    </g>
   </g>
   <g id="text_29">
    <!-- 100.0% -->
    <g style="fill: #262626" transform="translate(659.901646 107.641335) scale(0.08 -0.08)">
     <use xlink:href="#ArialMT-31"/>
     <use xlink:href="#ArialMT-30" x="55.615234"/>
     <use xlink:href="#ArialMT-30" x="111.230469"/>
     <use xlink:href="#ArialMT-2e" x="166.845703"/>
     <use xlink:href="#ArialMT-30" x="194.628906"/>
     <use xlink:href="#ArialMT-25" x="250.244141"/>
    </g>
   </g>
   <g id="text_30">
    <!-- 100.0% -->
    <g style="fill: #262626" transform="translate(659.901646 128.987217) scale(0.08 -0.08)">
     <use xlink:href="#ArialMT-31"/>
     <use xlink:href="#ArialMT-30" x="55.615234"/>
     <use xlink:href="#ArialMT-30" x="111.230469"/>
     <use xlink:href="#ArialMT-2e" x="166.845703"/>
     <use xlink:href="#ArialMT-30" x="194.628906"/>
     <use xlink:href="#ArialMT-25" x="250.244141"/>
    </g>
   </g>
   <g id="text_31">
    <!-- 100.0% -->
    <g style="fill: #262626" transform="translate(659.901646 150.333099) scale(0.08 -0.08)">
     <use xlink:href="#ArialMT-31"/>
     <use xlink:href="#ArialMT-30" x="55.615234"/>
     <use xlink:href="#ArialMT-30" x="111.230469"/>
     <use xlink:href="#ArialMT-2e" x="166.845703"/>
     <use xlink:href="#ArialMT-30" x="194.628906"/>
     <use xlink:href="#ArialMT-25" x="250.244141"/>
    </g>
   </g>
   <g id="text_32">
    <!-- 100.0% -->
    <g style="fill: #262626" transform="translate(659.901646 171.678982) scale(0.08 -0.08)">
     <use xlink:href="#ArialMT-31"/>
     <use xlink:href="#ArialMT-30" x="55.615234"/>
     <use xlink:href="#ArialMT-30" x="111.230469"/>
     <use xlink:href="#ArialMT-2e" x="166.845703"/>
     <use xlink:href="#ArialMT-30" x="194.628906"/>
     <use xlink:href="#ArialMT-25" x="250.244141"/>
    </g>
   </g>
   <g id="text_33">
    <!-- 80.0% -->
    <g style="fill: #262626" transform="translate(552.434979 193.024864) scale(0.08 -0.08)">
     <use xlink:href="#ArialMT-38"/>
     <use xlink:href="#ArialMT-30" x="55.615234"/>
     <use xlink:href="#ArialMT-2e" x="111.230469"/>
     <use xlink:href="#ArialMT-30" x="139.013672"/>
     <use xlink:href="#ArialMT-25" x="194.628906"/>
    </g>
   </g>
   <g id="text_34">
    <!-- 80.0% -->
    <g style="fill: #262626" transform="translate(552.434979 214.370746) scale(0.08 -0.08)">
     <use xlink:href="#ArialMT-38"/>
     <use xlink:href="#ArialMT-30" x="55.615234"/>
     <use xlink:href="#ArialMT-2e" x="111.230469"/>
     <use xlink:href="#ArialMT-30" x="139.013672"/>
     <use xlink:href="#ArialMT-25" x="194.628906"/>
    </g>
   </g>
   <g id="text_35">
    <!-- 80.0% -->
    <g style="fill: #262626" transform="translate(552.434979 235.716629) scale(0.08 -0.08)">
     <use xlink:href="#ArialMT-38"/>
     <use xlink:href="#ArialMT-30" x="55.615234"/>
     <use xlink:href="#ArialMT-2e" x="111.230469"/>
     <use xlink:href="#ArialMT-30" x="139.013672"/>
     <use xlink:href="#ArialMT-25" x="194.628906"/>
    </g>
   </g>
   <g id="text_36">
    <!-- 73.3% -->
    <g style="fill: #262626" transform="translate(516.612757 257.062511) scale(0.08 -0.08)">
     <defs>
      <path id="ArialMT-37" d="M 303 3981 
L 303 4522 
L 3269 4522 
L 3269 4084 
Q 2831 3619 2401 2847 
Q 1972 2075 1738 1259 
Q 1569 684 1522 0 
L 944 0 
Q 953 541 1156 1306 
Q 1359 2072 1739 2783 
Q 2119 3494 2547 3981 
L 303 3981 
z
" transform="scale(0.015625)"/>
      <path id="ArialMT-33" d="M 269 1209 
L 831 1284 
Q 928 806 1161 595 
Q 1394 384 1728 384 
Q 2125 384 2398 659 
Q 2672 934 2672 1341 
Q 2672 1728 2419 1979 
Q 2166 2231 1775 2231 
Q 1616 2231 1378 2169 
L 1441 2663 
Q 1497 2656 1531 2656 
Q 1891 2656 2178 2843 
Q 2466 3031 2466 3422 
Q 2466 3731 2256 3934 
Q 2047 4138 1716 4138 
Q 1388 4138 1169 3931 
Q 950 3725 888 3313 
L 325 3413 
Q 428 3978 793 4289 
Q 1159 4600 1703 4600 
Q 2078 4600 2393 4439 
Q 2709 4278 2876 4000 
Q 3044 3722 3044 3409 
Q 3044 3113 2884 2869 
Q 2725 2625 2413 2481 
Q 2819 2388 3044 2092 
Q 3269 1797 3269 1353 
Q 3269 753 2831 336 
Q 2394 -81 1725 -81 
Q 1122 -81 723 278 
Q 325 638 269 1209 
z
" transform="scale(0.015625)"/>
     </defs>
     <use xlink:href="#ArialMT-37"/>
     <use xlink:href="#ArialMT-33" x="55.615234"/>
     <use xlink:href="#ArialMT-2e" x="111.230469"/>
     <use xlink:href="#ArialMT-33" x="139.013672"/>
     <use xlink:href="#ArialMT-25" x="194.628906"/>
    </g>
   </g>
   <g id="text_37">
    <!-- 73.3% -->
    <g style="fill: #262626" transform="translate(516.612757 278.408393) scale(0.08 -0.08)">
     <use xlink:href="#ArialMT-37"/>
     <use xlink:href="#ArialMT-33" x="55.615234"/>
     <use xlink:href="#ArialMT-2e" x="111.230469"/>
     <use xlink:href="#ArialMT-33" x="139.013672"/>
     <use xlink:href="#ArialMT-25" x="194.628906"/>
    </g>
   </g>
   <g id="text_38">
    <!-- 66.7% -->
    <g style="fill: #262626" transform="translate(480.790535 299.754276) scale(0.08 -0.08)">
     <use xlink:href="#ArialMT-36"/>
     <use xlink:href="#ArialMT-36" x="55.615234"/>
     <use xlink:href="#ArialMT-2e" x="111.230469"/>
     <use xlink:href="#ArialMT-37" x="139.013672"/>
     <use xlink:href="#ArialMT-25" x="194.628906"/>
    </g>
   </g>
   <g id="text_39">
    <!-- 50.0% -->
    <g style="fill: #262626" transform="translate(391.234979 321.100158) scale(0.08 -0.08)">
     <defs>
      <path id="ArialMT-35" d="M 266 1200 
L 856 1250 
Q 922 819 1161 601 
Q 1400 384 1738 384 
Q 2144 384 2425 690 
Q 2706 997 2706 1503 
Q 2706 1984 2436 2262 
Q 2166 2541 1728 2541 
Q 1456 2541 1237 2417 
Q 1019 2294 894 2097 
L 366 2166 
L 809 4519 
L 3088 4519 
L 3088 3981 
L 1259 3981 
L 1013 2750 
Q 1425 3038 1878 3038 
Q 2478 3038 2890 2622 
Q 3303 2206 3303 1553 
Q 3303 931 2941 478 
Q 2500 -78 1738 -78 
Q 1113 -78 717 272 
Q 322 622 266 1200 
z
" transform="scale(0.015625)"/>
     </defs>
     <use xlink:href="#ArialMT-35"/>
     <use xlink:href="#ArialMT-30" x="55.615234"/>
     <use xlink:href="#ArialMT-2e" x="111.230469"/>
     <use xlink:href="#ArialMT-30" x="139.013672"/>
     <use xlink:href="#ArialMT-25" x="194.628906"/>
    </g>
   </g>
   <g id="text_40">
    <!-- 18.2% -->
    <g style="fill: #262626" transform="translate(220.265282 342.44604) scale(0.08 -0.08)">
     <use xlink:href="#ArialMT-31"/>
     <use xlink:href="#ArialMT-38" x="55.615234"/>
     <use xlink:href="#ArialMT-2e" x="111.230469"/>
     <use xlink:href="#ArialMT-32" x="139.013672"/>
     <use xlink:href="#ArialMT-25" x="194.628906"/>
    </g>
   </g>
   <g id="text_41">
    <!-- 15.4% -->
    <g style="fill: #262626" transform="translate(205.234979 363.791923) scale(0.08 -0.08)">
     <use xlink:href="#ArialMT-31"/>
     <use xlink:href="#ArialMT-35" x="55.615234"/>
     <use xlink:href="#ArialMT-2e" x="111.230469"/>
     <use xlink:href="#ArialMT-34" x="139.013672"/>
     <use xlink:href="#ArialMT-25" x="194.628906"/>
    </g>
   </g>
   <g id="text_42">
    <!-- 0.0% -->
    <g style="fill: #262626" transform="translate(122.568313 385.137805) scale(0.08 -0.08)">
     <use xlink:href="#ArialMT-30"/>
     <use xlink:href="#ArialMT-2e" x="55.615234"/>
     <use xlink:href="#ArialMT-30" x="83.398438"/>
     <use xlink:href="#ArialMT-25" x="139.013672"/>
    </g>
   </g>
   <g id="text_43">
    <!-- 0.0% -->
    <g style="fill: #262626" transform="translate(122.568313 406.483687) scale(0.08 -0.08)">
     <use xlink:href="#ArialMT-30"/>
     <use xlink:href="#ArialMT-2e" x="55.615234"/>
     <use xlink:href="#ArialMT-30" x="83.398438"/>
     <use xlink:href="#ArialMT-25" x="139.013672"/>
    </g>
   </g>
   <g id="text_44">
    <!-- Mutation Strategy Validity Ranking -->
    <g style="fill: #262626" transform="translate(299.802656 17.391562) scale(0.14 -0.14)">
     <defs>
      <path id="ArialMT-6b" d="M 425 0 
L 425 4581 
L 988 4581 
L 988 1969 
L 2319 3319 
L 3047 3319 
L 1778 2088 
L 3175 0 
L 2481 0 
L 1384 1697 
L 988 1316 
L 988 0 
L 425 0 
z
" transform="scale(0.015625)"/>
     </defs>
     <use xlink:href="#ArialMT-4d"/>
     <use xlink:href="#ArialMT-75" x="83.300781"/>
     <use xlink:href="#ArialMT-74" x="138.916016"/>
     <use xlink:href="#ArialMT-61" x="166.699219"/>
     <use xlink:href="#ArialMT-74" x="222.314453"/>
     <use xlink:href="#ArialMT-69" x="250.097656"/>
     <use xlink:href="#ArialMT-6f" x="272.314453"/>
     <use xlink:href="#ArialMT-6e" x="327.929688"/>
     <use xlink:href="#ArialMT-20" x="383.544922"/>
     <use xlink:href="#ArialMT-53" x="411.328125"/>
     <use xlink:href="#ArialMT-74" x="478.027344"/>
     <use xlink:href="#ArialMT-72" x="505.810547"/>
     <use xlink:href="#ArialMT-61" x="539.111328"/>
     <use xlink:href="#ArialMT-74" x="594.726562"/>
     <use xlink:href="#ArialMT-65" x="622.509766"/>
     <use xlink:href="#ArialMT-67" x="678.125"/>
     <use xlink:href="#ArialMT-79" x="733.740234"/>
     <use xlink:href="#ArialMT-20" x="783.740234"/>
     <use xlink:href="#ArialMT-56" x="811.523438"/>
     <use xlink:href="#ArialMT-61" x="870.847656"/>
     <use xlink:href="#ArialMT-6c" x="926.462891"/>
     <use xlink:href="#ArialMT-69" x="948.679688"/>
     <use xlink:href="#ArialMT-64" x="970.896484"/>
     <use xlink:href="#ArialMT-69" x="1026.511719"/>
     <use xlink:href="#ArialMT-74" x="1048.728516"/>
     <use xlink:href="#ArialMT-79" x="1076.511719"/>
     <use xlink:href="#ArialMT-20" x="1126.511719"/>
     <use xlink:href="#ArialMT-52" x="1154.294922"/>
     <use xlink:href="#ArialMT-61" x="1226.511719"/>
     <use xlink:href="#ArialMT-6e" x="1282.126953"/>
     <use xlink:href="#ArialMT-6b" x="1337.742188"/>
     <use xlink:href="#ArialMT-69" x="1387.742188"/>
     <use xlink:href="#ArialMT-6e" x="1409.958984"/>
     <use xlink:href="#ArialMT-67" x="1465.574219"/>
    </g>
   </g>
  </g>
 </g>
 <defs>
  <clipPath id="p04d7625514">
   <rect x="116.120313" y="23.391562" width="580.32" height="399.168"/>
  </clipPath>
 </defs>
</svg>
